<?xml version="1.0" standalone="no"?>
<!DOCTYPE svg PUBLIC "-//W3C//DTD SVG 20010904//EN"
 "http://www.w3.org/TR/2001/REC-SVG-20010904/DTD/svg10.dtd">
<svg version="1.0" xmlns="http://www.w3.org/2000/svg"
 width="900.000000pt" height="900.000000pt" viewBox="0 0 900.000000 900.000000"
 preserveAspectRatio="xMidYMid meet">
<metadata>
Created by potrace 1.13, written by Peter Selinger 2001-2015
</metadata>
<g transform="translate(0.000000,900.000000) scale(0.100000,-0.100000)"
fill="#000000" stroke="none">
<path d="M4140 8799 c-1390 -121 -2619 -887 -3338 -2079 -317 -525 -510 -1094
-589 -1730 -25 -207 -25 -773 0 -980 124 -996 544 -1866 1238 -2559 693 -694
1562 -1114 2559 -1238 207 -25 773 -25 980 0 996 124 1866 544 2559 1238 625
625 1039 1413 1195 2279 51 282 60 401 60 770 0 369 -9 488 -60 770 -319 1767
-1710 3158 -3474 3474 -262 47 -378 57 -710 61 -173 2 -362 -1 -420 -6z m1420
-244 c236 -59 571 -185 809 -304 428 -216 869 -544 1182 -882 226 -245 461
-556 476 -631 l6 -33 -44 36 c-67 55 -233 161 -339 217 -198 104 -511 210
-656 221 l-82 6 -69 90 c-305 394 -751 754 -1247 1006 l-146 74 0 40 c0 22 -7
71 -15 110 -19 87 -19 87 3 81 9 -3 64 -17 122 -31z m-2490 -119 c0 -2 -29
-20 -64 -40 -35 -20 -87 -54 -115 -76 -33 -27 -82 -51 -141 -70 -171 -58 -390
-163 -582 -280 -46 -28 -71 -40 -55 -28 129 106 577 348 827 448 138 54 130
52 130 46z m2207 -131 c167 -3 168 -3 253 -40 468 -200 935 -590 1283 -1072
l37 -51 -19 -34 c-10 -18 -26 -69 -36 -113 -77 -364 -183 -707 -281 -911 -24
-51 -44 -97 -44 -104 0 -7 -7 -10 -15 -6 -9 3 -76 11 -149 17 -221 20 -476 -9
-816 -92 -189 -47 -531 -158 -669 -218 -52 -23 -95 -40 -96 -38 -2 1 -9 16
-18 32 -55 106 -461 475 -781 709 -76 55 -192 140 -257 187 -65 48 -143 97
-174 110 -38 16 -55 28 -55 41 0 48 34 341 56 488 45 289 114 524 212 714 l46
89 83 39 c176 81 430 156 668 197 154 27 557 71 587 64 9 -2 92 -6 185 -8z
m-2117 -91 c154 -22 293 -60 395 -109 144 -69 140 -51 67 -278 -78 -242 -123
-409 -167 -612 -36 -170 -75 -415 -75 -477 0 -33 -4 -38 -34 -48 -94 -31 -534
-303 -751 -464 -217 -162 -532 -441 -582 -517 l-25 -37 -66 25 c-127 49 -348
115 -652 193 -201 52 -309 85 -317 96 -15 21 -33 103 -33 154 0 110 66 387
161 680 49 148 88 223 172 327 351 436 823 800 1282 986 269 110 346 120 625
81z m5064 -1795 c242 -467 400 -999 440 -1484 7 -82 12 -151 11 -153 -2 -2
-11 21 -20 50 -26 78 -71 165 -125 238 -26 36 -52 74 -57 85 -6 11 -13 92 -16
180 -14 369 -109 753 -279 1130 -86 192 -68 173 46 -46z m-1834 -502 c52 -10
77 -20 85 -33 5 -10 71 -82 145 -159 228 -237 446 -510 640 -800 138 -207 150
-231 150 -307 0 -83 -65 -408 -126 -626 -84 -303 -225 -688 -379 -1039 l-59
-133 -36 0 c-20 0 -94 -18 -165 -39 -378 -113 -985 -221 -1251 -221 -44 0
-103 -7 -130 -15 -27 -8 -49 -15 -50 -15 -2 0 -300 336 -375 425 -216 253
-485 604 -647 843 l-83 122 21 27 c11 16 146 365 300 777 154 411 289 765 300
786 25 49 60 78 178 144 245 138 518 226 837 271 127 18 534 13 645 -8z
m-5235 -42 c272 -55 539 -138 747 -233 l68 -31 0 -103 c1 -325 192 -1149 360
-1554 12 -29 8 -38 -105 -250 -231 -429 -337 -660 -407 -888 -30 -100 -34
-107 -55 -101 -12 3 -87 12 -167 20 -184 20 -324 59 -489 137 -124 58 -131 60
-187 55 l-59 -7 -47 53 c-25 28 -65 79 -87 111 -143 210 -340 739 -393 1051
-25 146 -25 474 -1 573 45 185 177 534 275 727 105 206 306 475 355 475 12 0
99 -16 192 -35z m7348 -821 c56 -69 138 -230 164 -324 25 -90 24 -480 -1 -690
-83 -695 -306 -1302 -682 -1865 -96 -144 -141 -200 -279 -353 -44 -49 -92
-103 -107 -120 -26 -32 -27 -32 -120 -32 -98 1 -161 11 -218 36 l-35 15 -1
112 c0 145 -19 229 -111 512 -92 281 -114 336 -164 402 l-39 52 30 65 c130
290 283 777 461 1464 l84 323 31 -6 c128 -23 721 265 873 425 25 27 51 48 56
46 6 -1 32 -29 58 -62z m-5256 -1177 l794 0 78 -91 c96 -113 224 -273 461
-576 247 -316 323 -410 468 -578 l123 -143 -24 -62 c-13 -34 -39 -100 -57
-147 -78 -201 -263 -568 -359 -710 -20 -30 -55 -82 -78 -115 -22 -33 -45 -73
-50 -90 -7 -23 -17 -31 -44 -36 -80 -16 -413 -32 -659 -32 -279 0 -393 8 -709
49 -222 28 -300 52 -341 106 -39 51 -137 146 -227 221 -95 78 -279 274 -401
427 -105 131 -251 349 -298 443 -20 40 -46 86 -59 103 -15 19 -20 35 -15 45 4
7 15 51 25 96 56 278 247 702 457 1016 57 85 60 88 90 82 17 -4 388 -7 825 -8z
m-2738 -419 c39 -98 143 -305 228 -457 69 -122 74 -143 53 -222 -8 -29 -8 -67
0 -137 7 -53 14 -100 17 -104 2 -5 2 -8 -1 -8 -9 0 -101 189 -167 342 -105
246 -223 629 -234 762 -3 28 -7 71 -10 96 -4 35 5 18 39 -75 24 -66 57 -155
75 -197z m6964 -1807 l99 -6 -124 -120 c-354 -346 -718 -602 -1143 -806 -156
-74 -372 -163 -425 -174 -40 -8 -225 -60 -254 -71 -11 -4 5 22 40 67 32 41 81
107 108 146 40 59 57 75 90 87 175 61 238 87 361 146 229 112 421 240 657 437
141 118 230 201 291 272 l38 44 82 -8 c45 -4 126 -10 180 -14z m-4461 -306
c363 -58 623 -75 1170 -75 337 0 418 -3 418 -13 0 -23 47 -78 102 -120 73 -55
329 -178 473 -227 149 -51 319 -95 476 -124 l120 -22 -40 -80 c-45 -89 -139
-208 -188 -236 -37 -22 -263 -70 -458 -98 -420 -58 -876 -51 -1300 20 -428 73
-1008 276 -1210 425 -33 24 -92 59 -132 77 -40 18 -72 35 -72 38 0 3 29 18 65
34 147 66 329 234 387 358 18 37 33 68 34 68 1 0 71 -11 155 -25z"/>
</g>
</svg>
